<svg id="Capa_1" xmlns="http://www.w3.org/2000/svg" version="1.1" viewBox="0 0 833 326" width="100%" height="100%" preserveAspectRatio="none" fill="#ffffff" data-color-group="0"><path d="M456.12,196.2c8.32,1.03,10.19,5.61,9.38,13.5,1.99-1.4,2.76-3.83,4.47-5.64,12.56-13.33,38.11-13.65,44.27,5.64,1.11,1.02,4.81-5.04,5.7-5.92,7.05-6.96,17.05-10.07,26.91-9.07,30.16,3.05,20.39,40,22.1,60.4.57,6.76,4.27,4.49,9.78,4.84v17.25h-24.38c-2.29,0-5.22-4.09-5.58-6.42-2.26-14.78,2.42-34.16-1.13-49.12-2.73-11.53-16.11-9.27-22.56-2.22-2.35,2.56-7.11,12.19-7.11,15.39v42.38h-21v-53.62c0-2.81-2.8-7.39-5.48-8.77-9.79-5.05-20.05,5.17-23.05,14-.57,1.67-2.22,7.69-2.22,9.03v39.38h-20.25v-60.38c0-3.37-7.55-2.64-9.75-2.62v-18c6.28.56,13.75-.76,19.88,0l.02-.03Z"/><path d="M79.62,13.95c1.61.2,6.88,1.94,8.61,2.64,21.75,8.75,23.42,37.94,4.51,50.61,10.21,1.99,16.46,13.03,17.28,22.86,1.45,17.44-8.11,30.28-24.93,34.38-8.01,1.95-37.63,2.5-45.93,1.23-3.78-.58-7.17-5.01-7.17-8.58V31.97h-9.75V13.97h57.38v-.02ZM53.75,58.95h20.62c.2,0,3.14-1.32,3.64-1.61,7.56-4.55,8.01-18.57.46-23.48-.59-.38-3.78-1.91-4.09-1.91h-20.62v27h-.01ZM53.75,76.2v29.62c0,.56,1.82,1.7,2.64,1.86,4.1.79,19.61.29,23.37-1.34,9.43-4.08,11.15-18.99,3.91-25.94-1.3-1.25-6.99-4.2-8.55-4.2h-21.38.01Z"/><path d="M158.75,270.45v38.25h-21v-92.62c0-2.52-8.06-1.88-9.75-1.88v-18h19.88c.24,0,4.11,1.11,4.66,1.34,4.13,1.73,4.07,4.33,4.72,8.41,1.19-.38,1.44-1.98,2.58-3.04,14.52-13.59,40.55-10.1,51.27,6.56,11.68,18.16,9.75,51.21-9.37,63.84-13.51,8.92-31.06,8.3-42.99-2.86h0ZM174.31,212.89c-21.86,3.5-20.75,45.01-.75,48.39,32,5.41,31.6-53.33.75-48.39Z"/><path d="M124.25,259.2v18h-18.38c-2.86,0-5.89-4.1-7.03-6.47-3.19-6.62-5.17-14.98-7.66-21.95l-37.51.37c-2.66,6.96-4.47,15.48-7.76,22.08-1.1,2.22-4.15,5.97-6.78,5.97h-18.38v-18c3.43.17,5.53.51,7.32-2.8l33.15-90.6c3.34-.21,21.61-1.18,22.92.39l32.81,90.19c1.42,3.27,4.22,3.01,7.31,2.82h-.01ZM86,231.45l-14.24-42-12.76,42h27Z"/><path d="M201.5,108.45v17.25h-22.88c-3.64,0-6.98-7.05-5.63-10.5-8.25,10.95-19.54,14.99-33,11.63-8.63-2.15-17.48-9.61-18.68-18.82-3.89-29.76,27.35-32.69,49.44-33.31.49-10.06-3.59-15.32-13.88-15.32-6.49,0-11.73,1.79-10.87,9.32h-18.75v-12.38c0-2.25,3.83-6.44,5.75-7.75,8.75-6,25.56-6.44,35.65-4.4,31.41,6.36,21.29,38.72,23.25,62.25.97,3.29,6.91,1.69,9.6,2.03h0ZM171.5,89.7h-13.88c-1.88,0-9.8,2.92-11.57,4.18-6.97,4.94-4.94,14.95,3.09,17.06,12.82,3.37,22.37-9.61,22.36-21.24h0Z"/><path d="M767.75,259.95v17.25h-24.38c-2.72,0-5.92-4.58-6.33-7.17-1.96-12.68,1.19-30.08-.06-43.44-2.03-21.72-28.08-13.66-33.2,2.78-.59,1.89-2.04,7.6-2.04,9.21v38.62h-20.25v-61.12c0-2.52-8.06-1.88-9.75-1.88v-18h19.88c.36,0,5.22,1.37,5.83,1.67,3.73,1.77,4.38,7.38,4.3,11.08,1.76-1.34,2.95-3.99,4.57-5.54,7.44-7.11,17.12-9.56,27.28-8.69,32.55,2.77,22.59,40.76,24.54,63.21.97,3.29,6.91,1.69,9.6,2.03h.01Z"/><path d="M693.5,57.08c2.58-15.54,33.03-15.22,44.41-12.16,28.02,7.53,18.26,37.24,20.06,58.69.57,6.76,4.27,4.49,9.78,4.84v17.25h-22.12c-3.73,0-7.79-6.82-6.38-10.5l-8.47,8.39c-15.36,9.74-40.88,2.72-43.19-17.1-3.27-28.01,29.58-31.71,50.17-31.8-.27-10.23-4.48-15.59-15.1-15.29-6.5.19-10.98,1.82-9.65,9.29h-19.5c.41-3.58-.57-8.22,0-11.62h-.01ZM737.75,89.7h-13.88c-1.03,0-7.3,2.03-8.62,2.63-11.56,5.25-7.82,19.18,4.87,19.18,10.31,0,18.41-12.14,17.62-21.81h.01Z"/><path d="M307.25,259.95v17.25h-22.12c-4.1,0-7.04-6.9-6.75-10.51-11.62,20.57-48.87,15.43-51.28-9.46-2.66-27.38,30-30.99,50.16-31.03.07-10.18-4.74-15.68-15.1-15.3-6.52.24-10.97,1.76-9.65,9.3h-19.5v-10.88c0-1.37,2.36-5.87,3.42-7.08,7.24-8.24,28.04-8.5,37.98-6.57,32.15,6.23,20.82,37.53,23.44,61.31,1.51,4.34,5.78,2.74,9.41,2.96h-.01ZM277.25,241.2h-13.12c-1.81,0-8.54,2.13-10.36,3.14-10.53,5.8-5.8,18.69,5.86,18.68,10.44-.01,18.49-12.01,17.63-21.81h-.01Z"/><path d="M604.62,44.7c8.32,1.03,10.19,5.61,9.38,13.5,1.79-1.43,2.81-3.93,4.47-5.64,9.24-9.52,25.64-12.08,37.73-6.94,22.1,9.41,10.71,43.85,14.97,61.9l8.82.93v17.25h-24.38c-1.63,0-5.28-4.48-5.58-6.42-2.24-14.15,2.82-35.53-1.14-49.11-3.46-11.86-19.14-8.86-26.29-2.25-3.31,3.07-7.86,11.78-7.86,16.14v41.62h-20.25v-60.38c0-3.37-7.55-2.64-9.75-2.62v-18c6.28.56,13.75-.76,19.88,0v.02Z"/><path d="M526.08,43.41c30.33-3.45,55.76,19.09,50.23,50.23-8.05,45.25-78.54,45.81-87.23.61-4.8-24.98,11.61-47.95,37-50.83h0ZM527.55,61.38c-27.28,4.6-23.39,53.56,9.39,48.39,28.71-4.53,24.03-54.03-9.39-48.39Z"/><path d="M662.75,241.2h-55.5c3.08,19.01,21.14,24.63,37.52,16.89,1.59-.75,8.43-5.72,9-5.31l8.12,14.17c-11.21,10.87-28.35,14.46-43.43,11.4-48.43-9.83-41.79-88.75,13.15-83.65,14.99,1.39,31.14,15.48,31.14,31.11v15.38h0ZM641.75,226.2c-1.96-21.6-29.93-19.06-33.75,0h33.75Z"/><path d="M431.75,89.7h-55.5c2.52,15.94,16.38,23.22,31.66,19.28,5.51-1.42,9.95-5.11,14.85-7.68l8.12,14.17c-21.37,20.35-61.54,15.83-72.76-13.26-12.97-33.63,14.02-67.86,49.97-57.47,11.11,3.21,23.67,16.95,23.67,28.83v16.12h0ZM410.75,74.7c-2-21.78-29.36-18.92-33.75,0h33.75Z"/><path d="M344,71.7h-18c2-10.68-8.66-12.05-16.67-10.29-23.38,5.15-24.63,41.44.14,47.44,11.77,2.85,21.73-2.61,30.39-10.15l8.53,14.01c-21.95,25.88-69.36,18.07-76.78-17-7.36-34.77,22-59.55,55.45-50.95,5.14,1.32,16.93,6.86,16.93,13.07v13.88h0Z"/><path d="M803.75,174.45v21.75h18v17.25h-18v35.62c0,.61,2.35,5.22,2.99,6.01,3.25,3.98,11.7,6.11,16.51,4.12v18.75h-15.38c-11.38,0-25.12-13.65-25.12-25.12v-39.38h-10.5v-17.25h11.25v-21.75h20.25Z"/><path d="M408.5,174.45v21.75h18.75v17.25h-18.75c1.93,16.43-8.39,50.66,19.5,45.75v18.75h-14.62c-9.9,0-25.12-12.45-25.12-22.88v-41.62h-10.5v-17.25h10.5v-21.75h20.25-.01Z"/><path d="M465.12,13.95c2.44.53,5.9,5.15,5.62,7.88l.69,85.38c1.22,1.94,6.87,1.08,9.06,1.25v17.25h-24.38c-2.13,0-5.97-4.58-5.64-7.11l-.03-83.22c-.91-5.52-5.37-4.09-9.71-4.17V13.96c6.92,1.03,18-1.38,24.38,0h.01Z"/><path d="M266,43.95v21c-11.07-2.85-22.05,3.57-26.15,13.97-.55,1.41-2.35,7.09-2.35,8.15v38.62h-21v-61.12c0-2.52-8.06-1.88-9.75-1.88v-18h19.88c.31,0,4.89,1.09,5.44,1.31,7.02,2.89,3.85,15.15,5.06,15.2,5.16-11.65,15.84-18.86,28.87-17.26h0Z"/><path d="M371.75,195.45v21c-11.06-2.82-21.98,3.81-25.87,14.26-.87,2.33-2.63,8.69-2.63,10.87v35.62h-20.25v-60.38c0-3.68-7.34-2.53-9.75-2.62v-18h19.88c2.72,0,9.38,3.18,9.38,6.38v10.88l7.1-10.53c6.12-5.59,13.81-8.26,22.15-7.47h-.01Z"/></svg>