<svg width="454" height="54" viewBox="0 0 454 54" xmlns="http://www.w3.org/2000/svg"><g fill="#fff" stroke="#fff"><path d="M1.369 42.438h25.375V38.82H7.774L27.037 8.116V7.48H3.13v3.472H21.17L1.37 41.754zM30.85 42.438h4.01l3.373-10.072h14.423l3.423 10.072h4.205L48.452 7.48h-5.574zm14.62-31.437l6.062 17.992H39.407zM66.444 42.438h4.254V27.233h5.378L86.49 42.438h4.742L80.525 26.94c4.791-.929 8.654-3.764 8.654-9.534v-.195c0-6.992-5.525-9.73-12.223-9.73H66.444zm4.254-18.579V10.903h6.551c4.743 0 7.676 1.564 7.676 6.307v.195c0 4.303-2.689 6.454-7.676 6.454zM94.508 42.438h4.009l3.374-10.072h14.423l3.422 10.072h4.205L112.109 7.48h-5.574zm14.619-31.437l6.062 17.992h-12.125zM143.35 42.878c8.948 0 15.157-5.378 15.157-15.499v-2.59h-14.374v3.52h10.218c-.146 6.209-3.422 11.147-11 11.147-8.214 0-12.517-5.672-12.517-14.326v-.39c0-8.557 4.596-14.424 12.615-14.424 5.084 0 8.898 2.151 9.876 7.725h4.253c-1.075-7.872-7.285-11.098-14.227-11.098-10.023 0-16.917 7.627-16.917 17.845v.391c0 10.219 6.16 17.7 16.917 17.7zM181.242 39.358c-7.285 0-12.908-5.77-12.908-14.228v-.39c0-8.312 4.694-14.277 12.81-14.277 8.067 0 12.663 6.356 12.663 14.178v.392c0 8.458-4.791 14.325-12.565 14.325zm0 3.52c10.17 0 16.965-7.92 16.965-17.797v-.39c0-9.828-6.796-17.65-17.063-17.65s-17.21 7.822-17.21 17.747v.391c0 9.779 6.992 17.7 17.308 17.7zM200.799 42.438h25.374V38.82h-18.97l19.264-30.704V7.48h-23.908v3.472h18.04l-19.8 30.802zM230.28 42.438h4.01l3.373-10.072h14.423l3.423 10.072h4.204L247.881 7.48h-5.573zM244.9 11.001l6.063 17.992h-12.126z" stroke-width=".04889"/></g></svg>